<svg width="12" height="12" viewBox="0 0 12 12" fill="none" xmlns="http://www.w3.org/2000/svg">
<path d="M6 1.125C3.312 1.125 1.125 3.312 1.125 6C1.125 8.688 3.312 10.875 6 10.875C8.688 10.875 10.875 8.688 10.875 6C10.875 3.312 8.688 1.125 6 1.125ZM6 1.875C8.28225 1.875 10.125 3.71775 10.125 6C10.125 8.28225 8.28225 10.125 6 10.125C3.71775 10.125 1.875 8.28225 1.875 6C1.875 3.71775 3.71775 1.875 6 1.875ZM5.96475 3.75C4.71825 3.75 3.71475 4.7535 3.71475 6C3.71475 7.2465 4.71825 8.25 5.96475 8.25C6.86438 8.25 7.6335 7.71075 7.992 6.94913L7.3125 6.633C7.07062 7.14675 6.5655 7.5 5.96475 7.5C5.11088 7.5 4.46475 6.85388 4.46475 6C4.46475 5.14612 5.11088 4.5 5.96475 4.5C6.5655 4.5 7.071 4.85287 7.3125 5.36737L7.99237 5.05087C7.63312 4.28925 6.86438 3.75 5.96438 3.75H5.96475Z" fill="#BDB9B9"/>
</svg>
