<svg width="23" height="23" viewBox="0 0 23 23" fill="none" xmlns="http://www.w3.org/2000/svg">
<path d="M6.03728 4.79167H20.125L18.2083 11.5H7.06935M19.1667 15.3333H7.66667L5.75 2.875H2.875M8.625 19.1667C8.625 19.6959 8.19594 20.125 7.66667 20.125C7.13739 20.125 6.70833 19.6959 6.70833 19.1667C6.70833 18.6374 7.13739 18.2083 7.66667 18.2083C8.19594 18.2083 8.625 18.6374 8.625 19.1667ZM19.1667 19.1667C19.1667 19.6959 18.7376 20.125 18.2083 20.125C17.6791 20.125 17.25 19.6959 17.25 19.1667C17.25 18.6374 17.6791 18.2083 18.2083 18.2083C18.7376 18.2083 19.1667 18.6374 19.1667 19.1667Z" stroke="white" stroke-width="1.84" stroke-linecap="round" stroke-linejoin="round"/>
</svg>
