<svg width="146" height="17" viewBox="0 0 146 17" fill="none" xmlns="http://www.w3.org/2000/svg">
<g clip-path="url(#clip0_1402_498)">
<path d="M36.6355 4.77931H41.1853V16.5189H46.2444V4.77931H50.7941V0.481201H36.6016V4.77931H36.6355Z" fill="white"/>
<path d="M60.5395 6.60755L58.6041 6.12642C57.5515 5.86981 57.0422 5.51698 57.0422 5.06792C57.0422 4.42641 57.8232 4.07358 59.2492 4.07358C61.0148 4.07358 62.8822 4.71509 64.512 5.86981V1.31509C62.6446 0.416981 60.7432 0 58.7399 0C54.5636 0 51.9492 1.98868 51.9492 5.16415C51.9492 7.60189 53.4092 9.17358 56.3971 9.9434L58.8418 10.5528C59.8264 10.7774 60.3018 11.1623 60.3018 11.7075C60.3018 12.5094 59.4529 12.9264 57.8911 12.9264C55.8539 12.9264 53.7488 12.1887 52.0511 10.8736V15.4283C54.0204 16.4868 56.1255 17 58.4004 17C62.6785 17 65.3608 14.9151 65.3608 11.5792C65.3948 9.07736 63.765 7.40943 60.5395 6.60755Z" fill="white"/>
<path d="M30.0486 10.168C30.0486 11.5152 28.9281 12.5737 27.5021 12.5737C26.076 12.5737 24.9556 11.5152 24.9556 10.168V0.481201H19.8965V9.81516C19.8965 14.0171 23.0542 17.0001 27.5021 17.0001C31.95 17.0001 35.1076 14.0171 35.1076 9.81516V0.481201H30.0486V10.168Z" fill="white"/>
<path d="M9.13349 0C4.00651 0 0 3.72075 0 8.5C0 13.2792 4.00651 17 9.13349 17C14.2605 17 18.267 13.2792 18.267 8.5C18.267 3.72075 14.2605 0 9.13349 0ZM9.13349 12.5736C6.92651 12.5736 5.19488 10.7774 5.19488 8.5C5.19488 6.22264 6.92651 4.42641 9.13349 4.42641C11.3405 4.42641 13.0721 6.22264 13.0721 8.5C13.0721 10.7774 11.3405 12.5736 9.13349 12.5736Z" fill="white"/>
<path d="M139.141 12.2208V0.481201H134.082V16.5189H146V12.2208H139.141Z" fill="white"/>
<path d="M123.319 0C121.214 0 119.72 0.481132 117.886 1.73208C116.766 2.40566 116.222 2.63019 115.747 2.63019C115.17 2.63019 114.627 2.40566 113.608 1.73208C111.775 0.481132 110.247 0 108.175 0C103.049 0 99.042 3.72076 99.042 8.5C99.042 13.2792 102.981 17 108.108 17C110.179 17 111.673 16.5189 113.54 15.2679C114.559 14.5623 115.102 14.3698 115.679 14.3698C116.324 14.3698 116.834 14.5943 117.818 15.2679C119.652 16.5189 121.18 17 123.251 17C128.378 17 132.384 13.2792 132.384 8.5C132.384 3.72076 128.412 0 123.319 0ZM123.285 12.4453C122.096 12.4453 120.331 11.7717 119.007 10.8415C117.75 9.9434 116.766 9.55849 115.713 9.55849C114.661 9.55849 113.676 9.9434 112.42 10.8415C111.095 11.7717 109.33 12.4132 108.142 12.4132C105.935 12.4132 104.203 10.6811 104.203 8.46793C104.203 6.25472 105.969 4.52264 108.142 4.52264C109.33 4.52264 111.095 5.16415 112.42 6.09434C113.71 6.99245 114.728 7.37736 115.713 7.37736C116.766 7.37736 117.75 6.99245 119.007 6.09434C120.331 5.16415 122.096 4.49057 123.285 4.49057C125.492 4.49057 127.223 6.22264 127.223 8.43585C127.223 10.6491 125.492 12.4453 123.285 12.4453Z" fill="white"/>
<path d="M92.2519 6.22271H87.1929V0.481201H82.1338V16.5189H87.1929V10.5208H92.2519V16.5189H97.311V0.481201H92.2519V6.22271Z" fill="white"/>
<path d="M66.4131 8.5C66.4131 13.4717 70.1819 17 75.5466 17C76.9387 17 78.7042 16.7113 80.0963 16.2623V11.7075C78.9419 12.2849 77.6856 12.5736 76.2935 12.5736C73.5433 12.5736 71.608 10.9057 71.608 8.5C71.608 6.09434 73.5433 4.42641 76.2935 4.42641C77.6177 4.42641 78.874 4.74717 80.0963 5.32453V0.801887C78.7722 0.320755 77.0405 0 75.5466 0C70.1819 0 66.4131 3.5283 66.4131 8.5Z" fill="white"/>
</g>
<defs>
<clipPath id="clip0_1402_498">
<rect width="146" height="17" fill="white"/>
</clipPath>
</defs>
</svg>
