<svg width="84" height="16" viewBox="0 0 84 16" fill="none" xmlns="http://www.w3.org/2000/svg">
<path d="M7.49603 2.78263C7.65034 2.33868 7.7275 2.11671 7.8416 2.05519C7.94034 2.00195 8.05925 2.00195 8.15799 2.05519C8.27209 2.11671 8.34925 2.33868 8.50356 2.78263L9.52374 5.71755C9.56766 5.8439 9.58962 5.90708 9.62919 5.95413C9.66415 5.99569 9.70873 6.02808 9.75906 6.04848C9.81603 6.07158 9.8829 6.07294 10.0166 6.07567L13.1232 6.13897C13.5931 6.14855 13.828 6.15334 13.9218 6.24284C14.0029 6.3203 14.0397 6.43338 14.0196 6.54375C13.9963 6.67127 13.8091 6.81325 13.4345 7.09719L10.9585 8.97439C10.8519 9.0552 10.7986 9.09561 10.7661 9.14778C10.7374 9.19387 10.7203 9.24628 10.7165 9.30045C10.7121 9.36177 10.7315 9.42579 10.7702 9.55383L11.67 12.5279C11.8061 12.9777 11.8741 13.2027 11.818 13.3195C11.7694 13.4206 11.6732 13.4905 11.562 13.5055C11.4336 13.5228 11.2407 13.3885 10.8549 13.1201L8.30442 11.3453C8.19462 11.2689 8.13973 11.2307 8.08006 11.2159C8.02735 11.2028 7.97224 11.2028 7.91953 11.2159C7.85986 11.2307 7.80496 11.2689 7.69517 11.3453L5.14472 13.1201C4.75893 13.3885 4.56603 13.5228 4.43757 13.5055C4.32639 13.4905 4.23019 13.4206 4.1816 13.3195C4.12545 13.2027 4.1935 12.9777 4.3296 12.5279L5.22937 9.55383C5.2681 9.42579 5.28747 9.36177 5.28311 9.30045C5.27926 9.24628 5.26223 9.19387 5.23351 9.14778C5.20099 9.09561 5.14769 9.0552 5.0411 8.97439L2.56507 7.0972C2.19054 6.81325 2.00327 6.67127 1.98002 6.54375C1.9599 6.43338 1.99664 6.3203 2.07779 6.24284C2.17156 6.15334 2.40651 6.14855 2.87641 6.13897L5.98295 6.07567C6.11668 6.07294 6.18355 6.07158 6.24053 6.04848C6.29086 6.02808 6.33544 5.99569 6.3704 5.95413C6.40997 5.90708 6.43193 5.8439 6.47585 5.71755L7.49603 2.78263Z" fill="#EBE100" stroke="#EBE100" stroke-width="1.33333" stroke-linecap="round" stroke-linejoin="round"/>
<path d="M24.496 2.78263C24.6503 2.33868 24.7275 2.11671 24.8416 2.05519C24.9403 2.00195 25.0592 2.00195 25.158 2.05519C25.2721 2.11671 25.3492 2.33868 25.5036 2.78263L26.5237 5.71755C26.5677 5.8439 26.5896 5.90708 26.6292 5.95413C26.6641 5.99569 26.7087 6.02808 26.7591 6.04848C26.816 6.07158 26.8829 6.07294 27.0166 6.07567L30.1232 6.13897C30.5931 6.14855 30.828 6.15334 30.9218 6.24284C31.0029 6.3203 31.0397 6.43338 31.0196 6.54375C30.9963 6.67127 30.8091 6.81325 30.4345 7.09719L27.9585 8.97439C27.8519 9.0552 27.7986 9.09561 27.7661 9.14778C27.7374 9.19387 27.7203 9.24628 27.7165 9.30045C27.7121 9.36177 27.7315 9.42579 27.7702 9.55383L28.67 12.5279C28.8061 12.9777 28.8741 13.2027 28.818 13.3195C28.7694 13.4206 28.6732 13.4905 28.562 13.5055C28.4336 13.5228 28.2407 13.3885 27.8549 13.1201L25.3044 11.3453C25.1946 11.2689 25.1397 11.2307 25.0801 11.2159C25.0273 11.2028 24.9722 11.2028 24.9195 11.2159C24.8599 11.2307 24.805 11.2689 24.6952 11.3453L22.1447 13.1201C21.7589 13.3885 21.566 13.5228 21.4376 13.5055C21.3264 13.4905 21.2302 13.4206 21.1816 13.3195C21.1255 13.2027 21.1935 12.9777 21.3296 12.5279L22.2294 9.55383C22.2681 9.42579 22.2875 9.36177 22.2831 9.30045C22.2793 9.24628 22.2622 9.19387 22.2335 9.14778C22.201 9.09561 22.1477 9.0552 22.0411 8.97439L19.5651 7.0972C19.1905 6.81325 19.0033 6.67127 18.98 6.54375C18.9599 6.43338 18.9966 6.3203 19.0778 6.24284C19.1716 6.15334 19.4065 6.14855 19.8764 6.13897L22.9829 6.07567C23.1167 6.07294 23.1836 6.07158 23.2405 6.04848C23.2909 6.02808 23.3354 5.99569 23.3704 5.95413C23.41 5.90708 23.4319 5.8439 23.4758 5.71755L24.496 2.78263Z" fill="#EBE100" stroke="#EBE100" stroke-width="1.33333" stroke-linecap="round" stroke-linejoin="round"/>
<path d="M41.496 2.78263C41.6503 2.33868 41.7275 2.11671 41.8416 2.05519C41.9403 2.00195 42.0592 2.00195 42.158 2.05519C42.2721 2.11671 42.3492 2.33868 42.5036 2.78263L43.5237 5.71755C43.5677 5.8439 43.5896 5.90708 43.6292 5.95413C43.6641 5.99569 43.7087 6.02808 43.7591 6.04848C43.816 6.07158 43.8829 6.07294 44.0166 6.07567L47.1232 6.13897C47.5931 6.14855 47.828 6.15334 47.9218 6.24284C48.0029 6.3203 48.0397 6.43338 48.0196 6.54375C47.9963 6.67127 47.8091 6.81325 47.4345 7.09719L44.9585 8.97439C44.8519 9.0552 44.7986 9.09561 44.7661 9.14778C44.7374 9.19387 44.7203 9.24628 44.7165 9.30045C44.7121 9.36177 44.7315 9.42579 44.7702 9.55383L45.67 12.5279C45.8061 12.9777 45.8741 13.2027 45.818 13.3195C45.7694 13.4206 45.6732 13.4905 45.562 13.5055C45.4336 13.5228 45.2407 13.3885 44.8549 13.1201L42.3044 11.3453C42.1946 11.2689 42.1397 11.2307 42.0801 11.2159C42.0273 11.2028 41.9722 11.2028 41.9195 11.2159C41.8599 11.2307 41.805 11.2689 41.6952 11.3453L39.1447 13.1201C38.7589 13.3885 38.566 13.5228 38.4376 13.5055C38.3264 13.4905 38.2302 13.4206 38.1816 13.3195C38.1255 13.2027 38.1935 12.9777 38.3296 12.5279L39.2294 9.55383C39.2681 9.42579 39.2875 9.36177 39.2831 9.30045C39.2793 9.24628 39.2622 9.19387 39.2335 9.14778C39.201 9.09561 39.1477 9.0552 39.0411 8.97439L36.5651 7.0972C36.1905 6.81325 36.0033 6.67127 35.98 6.54375C35.9599 6.43338 35.9966 6.3203 36.0778 6.24284C36.1716 6.15334 36.4065 6.14855 36.8764 6.13897L39.9829 6.07567C40.1167 6.07294 40.1836 6.07158 40.2405 6.04848C40.2909 6.02808 40.3354 5.99569 40.3704 5.95413C40.41 5.90708 40.4319 5.8439 40.4758 5.71755L41.496 2.78263Z" fill="#EBE100" stroke="#EBE100" stroke-width="1.33333" stroke-linecap="round" stroke-linejoin="round"/>
<path d="M58.496 2.78263C58.6503 2.33868 58.7275 2.11671 58.8416 2.05519C58.9403 2.00195 59.0592 2.00195 59.158 2.05519C59.2721 2.11671 59.3492 2.33868 59.5036 2.78263L60.5237 5.71755C60.5677 5.8439 60.5896 5.90708 60.6292 5.95413C60.6641 5.99569 60.7087 6.02808 60.7591 6.04848C60.816 6.07158 60.8829 6.07294 61.0166 6.07567L64.1232 6.13897C64.5931 6.14855 64.828 6.15334 64.9218 6.24284C65.0029 6.3203 65.0397 6.43338 65.0196 6.54375C64.9963 6.67127 64.8091 6.81325 64.4345 7.09719L61.9585 8.97439C61.8519 9.0552 61.7986 9.09561 61.7661 9.14778C61.7374 9.19387 61.7203 9.24628 61.7165 9.30045C61.7121 9.36177 61.7315 9.42579 61.7702 9.55383L62.67 12.5279C62.8061 12.9777 62.8741 13.2027 62.818 13.3195C62.7694 13.4206 62.6732 13.4905 62.562 13.5055C62.4336 13.5228 62.2407 13.3885 61.8549 13.1201L59.3044 11.3453C59.1946 11.2689 59.1397 11.2307 59.0801 11.2159C59.0273 11.2028 58.9722 11.2028 58.9195 11.2159C58.8599 11.2307 58.805 11.2689 58.6952 11.3453L56.1447 13.1201C55.7589 13.3885 55.566 13.5228 55.4376 13.5055C55.3264 13.4905 55.2302 13.4206 55.1816 13.3195C55.1255 13.2027 55.1935 12.9777 55.3296 12.5279L56.2294 9.55383C56.2681 9.42579 56.2875 9.36177 56.2831 9.30045C56.2793 9.24628 56.2622 9.19387 56.2335 9.14778C56.201 9.09561 56.1477 9.0552 56.0411 8.97439L53.5651 7.0972C53.1905 6.81325 53.0033 6.67127 52.98 6.54375C52.9599 6.43338 52.9966 6.3203 53.0778 6.24284C53.1716 6.15334 53.4065 6.14855 53.8764 6.13897L56.9829 6.07567C57.1167 6.07294 57.1836 6.07158 57.2405 6.04848C57.2909 6.02808 57.3354 5.99569 57.3704 5.95413C57.41 5.90708 57.4319 5.8439 57.4758 5.71755L58.496 2.78263Z" fill="#EBE100" stroke="#EBE100" stroke-width="1.33333" stroke-linecap="round" stroke-linejoin="round"/>
<path d="M75.496 2.78263C75.6503 2.33868 75.7275 2.11671 75.8416 2.05519C75.9403 2.00195 76.0592 2.00195 76.158 2.05519C76.2721 2.11671 76.3492 2.33868 76.5036 2.78263L77.5237 5.71755C77.5677 5.8439 77.5896 5.90708 77.6292 5.95413C77.6641 5.99569 77.7087 6.02808 77.7591 6.04848C77.816 6.07158 77.8829 6.07294 78.0166 6.07567L81.1232 6.13897C81.5931 6.14855 81.828 6.15334 81.9218 6.24284C82.0029 6.3203 82.0397 6.43338 82.0196 6.54375C81.9963 6.67127 81.8091 6.81325 81.4345 7.09719L78.9585 8.97439C78.8519 9.0552 78.7986 9.09561 78.7661 9.14778C78.7374 9.19387 78.7203 9.24628 78.7165 9.30045C78.7121 9.36177 78.7315 9.42579 78.7702 9.55383L79.67 12.5279C79.8061 12.9777 79.8741 13.2027 79.818 13.3195C79.7694 13.4206 79.6732 13.4905 79.562 13.5055C79.4336 13.5228 79.2407 13.3885 78.8549 13.1201L76.3044 11.3453C76.1946 11.2689 76.1397 11.2307 76.0801 11.2159C76.0273 11.2028 75.9722 11.2028 75.9195 11.2159C75.8599 11.2307 75.805 11.2689 75.6952 11.3453L73.1447 13.1201C72.7589 13.3885 72.566 13.5228 72.4376 13.5055C72.3264 13.4905 72.2302 13.4206 72.1816 13.3195C72.1255 13.2027 72.1935 12.9777 72.3296 12.5279L73.2294 9.55383C73.2681 9.42579 73.2875 9.36177 73.2831 9.30045C73.2793 9.24628 73.2622 9.19387 73.2335 9.14778C73.201 9.09561 73.1477 9.0552 73.0411 8.97439L70.5651 7.0972C70.1905 6.81325 70.0033 6.67127 69.98 6.54375C69.9599 6.43338 69.9966 6.3203 70.0778 6.24284C70.1716 6.15334 70.4065 6.14855 70.8764 6.13897L73.9829 6.07567C74.1167 6.07294 74.1836 6.07158 74.2405 6.04848C74.2909 6.02808 74.3354 5.99569 74.3704 5.95413C74.41 5.90708 74.4319 5.8439 74.4758 5.71755L75.496 2.78263Z" fill="#EBE100" stroke="#EBE100" stroke-width="1.33333" stroke-linecap="round" stroke-linejoin="round"/>
</svg>
