<svg width="20" height="20" viewBox="0 0 20 20" fill="none" xmlns="http://www.w3.org/2000/svg">
<path d="M11.6663 4.66671C11.6663 4.2 11.6663 3.96664 11.7572 3.78838C11.8371 3.63158 11.9645 3.5041 12.1213 3.4242C12.2996 3.33337 12.533 3.33337 12.9997 3.33337H15.333C15.7997 3.33337 16.0331 3.33337 16.2113 3.4242C16.3681 3.5041 16.4956 3.63158 16.5755 3.78838C16.6663 3.96664 16.6663 4.2 16.6663 4.66671V7.00004C16.6663 7.46675 16.6663 7.70011 16.5755 7.87837C16.4956 8.03517 16.3681 8.16265 16.2113 8.24255C16.0331 8.33337 15.7997 8.33337 15.333 8.33337H12.9997C12.533 8.33337 12.2996 8.33337 12.1213 8.24255C11.9645 8.16265 11.8371 8.03517 11.7572 7.87837C11.6663 7.70011 11.6663 7.46675 11.6663 7.00004V4.66671Z" stroke="#5228B6" stroke-width="2" stroke-linecap="round" stroke-linejoin="round"/>
<path d="M3.33301 4.66671C3.33301 4.2 3.33301 3.96664 3.42384 3.78838C3.50373 3.63158 3.63121 3.5041 3.78802 3.4242C3.96628 3.33337 4.19963 3.33337 4.66634 3.33337H6.99967C7.46638 3.33337 7.69974 3.33337 7.878 3.4242C8.0348 3.5041 8.16229 3.63158 8.24218 3.78838C8.33301 3.96664 8.33301 4.2 8.33301 4.66671V7.00004C8.33301 7.46675 8.33301 7.70011 8.24218 7.87837C8.16229 8.03517 8.0348 8.16265 7.878 8.24255C7.69974 8.33337 7.46638 8.33337 6.99967 8.33337H4.66634C4.19963 8.33337 3.96628 8.33337 3.78802 8.24255C3.63121 8.16265 3.50373 8.03517 3.42384 7.87837C3.33301 7.70011 3.33301 7.46675 3.33301 7.00004V4.66671Z" stroke="#5228B6" stroke-width="2" stroke-linecap="round" stroke-linejoin="round"/>
<path d="M3.33301 13C3.33301 12.5333 3.33301 12.3 3.42384 12.1217C3.50373 11.9649 3.63121 11.8374 3.78802 11.7575C3.96628 11.6667 4.19963 11.6667 4.66634 11.6667H6.99967C7.46638 11.6667 7.69974 11.6667 7.878 11.7575C8.0348 11.8374 8.16229 11.9649 8.24218 12.1217C8.33301 12.3 8.33301 12.5333 8.33301 13V15.3334C8.33301 15.8001 8.33301 16.0334 8.24218 16.2117C8.16229 16.3685 8.0348 16.496 7.878 16.5759C7.69974 16.6667 7.46638 16.6667 6.99967 16.6667H4.66634C4.19963 16.6667 3.96628 16.6667 3.78802 16.5759C3.63121 16.496 3.50373 16.3685 3.42384 16.2117C3.33301 16.0334 3.33301 15.8001 3.33301 15.3334V13Z" stroke="#5228B6" stroke-width="2" stroke-linecap="round" stroke-linejoin="round"/>
<path d="M11.6663 13C11.6663 12.5333 11.6663 12.3 11.7572 12.1217C11.8371 11.9649 11.9645 11.8374 12.1213 11.7575C12.2996 11.6667 12.533 11.6667 12.9997 11.6667H15.333C15.7997 11.6667 16.0331 11.6667 16.2113 11.7575C16.3681 11.8374 16.4956 11.9649 16.5755 12.1217C16.6663 12.3 16.6663 12.5333 16.6663 13V15.3334C16.6663 15.8001 16.6663 16.0334 16.5755 16.2117C16.4956 16.3685 16.3681 16.496 16.2113 16.5759C16.0331 16.6667 15.7997 16.6667 15.333 16.6667H12.9997C12.533 16.6667 12.2996 16.6667 12.1213 16.5759C11.9645 16.496 11.8371 16.3685 11.7572 16.2117C11.6663 16.0334 11.6663 15.8001 11.6663 15.3334V13Z" stroke="#5228B6" stroke-width="2" stroke-linecap="round" stroke-linejoin="round"/>
</svg>
