<svg width="44" height="44" viewBox="0 0 44 44" fill="none" xmlns="http://www.w3.org/2000/svg">
<path d="M27.5 33C30.5376 33 33 30.5376 33 27.5C33 24.4624 30.5376 22 27.5 22C24.4624 22 22 24.4624 22 27.5C22 30.5376 24.4624 33 27.5 33Z" stroke="#5027B5" stroke-width="3" stroke-linecap="round" stroke-linejoin="round"/>
<path d="M23.833 32.0834V40.3334L27.4997 37.5834L31.1663 40.3334V32.0834" stroke="#5027B5" stroke-width="3" stroke-linecap="round" stroke-linejoin="round"/>
<path d="M18.3333 34.8334H9.16667C8.19421 34.8334 7.26158 34.447 6.57394 33.7594C5.88631 33.0718 5.5 32.1391 5.5 31.1667V12.8334C5.5 10.8167 7.15 9.16669 9.16667 9.16669H34.8333C35.8058 9.16669 36.7384 9.553 37.4261 10.2406C38.1137 10.9283 38.5 11.8609 38.5 12.8334V31.1667C38.4993 31.8097 38.3296 32.4412 38.0078 32.9979C37.686 33.5546 37.2235 34.0169 36.6667 34.3384M11 16.5H33M11 22H16.5M11 27.5H14.6667" stroke="#5027B5" stroke-width="3" stroke-linecap="round" stroke-linejoin="round"/>
</svg>
