<svg width="44" height="44" viewBox="0 0 44 44" fill="none" xmlns="http://www.w3.org/2000/svg">
<path d="M11 38.5C11 38.5 14.3 36.6667 22 36.6667C29.7 36.6667 33 38.5 33 38.5M16.5 31.1667V36.6667M27.5 31.1667V36.6667M14.3 31.1667H29.7C32.7803 31.1667 34.3204 31.1667 35.4969 30.5672C36.5318 30.0399 37.3732 29.1985 37.9005 28.1636C38.5 26.9871 38.5 25.447 38.5 22.3667V14.3C38.5 11.2197 38.5 9.67957 37.9005 8.50305C37.3732 7.46816 36.5318 6.62677 35.4969 6.09946C34.3204 5.5 32.7803 5.5 29.7 5.5H14.3C11.2197 5.5 9.67957 5.5 8.50305 6.09946C7.46816 6.62677 6.62677 7.46816 6.09946 8.50305C5.5 9.67957 5.5 11.2197 5.5 14.3V22.3667C5.5 25.447 5.5 26.9871 6.09946 28.1636C6.62677 29.1985 7.46816 30.0399 8.50305 30.5672C9.67957 31.1667 11.2197 31.1667 14.3 31.1667Z" stroke="#5027B5" stroke-width="3" stroke-linecap="round" stroke-linejoin="round"/>
</svg>
