<svg width="44" height="44" viewBox="0 0 44 44" fill="none" xmlns="http://www.w3.org/2000/svg">
<path d="M14.6667 22.6111L19.1795 27.5L29.3333 16.5M14.3007 8.50085C15.627 8.39501 16.8862 7.87345 17.8989 7.01044C20.2621 4.99652 23.7379 4.99652 26.1011 7.01044C27.1138 7.87345 28.373 8.39501 29.6993 8.50085C32.7944 8.74784 35.2522 11.2056 35.4992 14.3007C35.605 15.627 36.1265 16.8862 36.9896 17.8989C39.0035 20.2621 39.0035 23.7379 36.9896 26.1011C36.1265 27.1138 35.605 28.373 35.4992 29.6993C35.2522 32.7944 32.7944 35.2522 29.6993 35.4992C28.373 35.605 27.1138 36.1265 26.1011 36.9896C23.7379 39.0035 20.2621 39.0035 17.8989 36.9896C16.8862 36.1265 15.627 35.605 14.3007 35.4992C11.2056 35.2522 8.74784 32.7944 8.50085 29.6993C8.39501 28.373 7.87345 27.1138 7.01044 26.1011C4.99652 23.7379 4.99652 20.2621 7.01044 17.8989C7.87345 16.8862 8.39501 15.627 8.50085 14.3007C8.74784 11.2056 11.2056 8.74784 14.3007 8.50085Z" stroke="#5027B5" stroke-width="3" stroke-linecap="round" stroke-linejoin="round"/>
</svg>
