<svg width="44" height="44" viewBox="0 0 44 44" fill="none" xmlns="http://www.w3.org/2000/svg">
<path d="M27.5 16.5H27.5183M27.5 27.5C33.5751 27.5 38.5 22.5751 38.5 16.5C38.5 10.4249 33.5751 5.5 27.5 5.5C21.4249 5.5 16.5 10.4249 16.5 16.5C16.5 17.0017 16.5336 17.4956 16.5987 17.9796C16.7057 18.7755 16.7592 19.1735 16.7231 19.4252C16.6856 19.6875 16.6379 19.8289 16.5086 20.0601C16.3845 20.2822 16.1658 20.5009 15.7284 20.9383L6.35915 30.3075C6.04208 30.6246 5.88354 30.7831 5.77016 30.9681C5.66964 31.1322 5.59557 31.311 5.55066 31.4981C5.5 31.7091 5.5 31.9333 5.5 32.3817V35.5667C5.5 36.5934 5.5 37.1068 5.69982 37.499C5.87559 37.8439 6.15605 38.1244 6.50102 38.3002C6.89319 38.5 7.40657 38.5 8.43333 38.5H11.6183C12.0667 38.5 12.2909 38.5 12.5019 38.4493C12.689 38.4044 12.8678 38.3304 13.0319 38.2298C13.2169 38.1165 13.3754 37.9579 13.6925 37.6408L23.0617 28.2716C23.4991 27.8342 23.7178 27.6155 23.9399 27.4914C24.1711 27.3621 24.3125 27.3144 24.5748 27.2769C24.8265 27.2408 25.2245 27.2943 26.0204 27.4013C26.5044 27.4664 26.9983 27.5 27.5 27.5Z" stroke="#5027B5" stroke-width="3" stroke-linecap="round" stroke-linejoin="round"/>
</svg>
