<svg width="110" height="47" viewBox="0 0 110 47" fill="none" xmlns="http://www.w3.org/2000/svg">
<path fill-rule="evenodd" clip-rule="evenodd" d="M67.9349 36.4389C61.5714 40.9129 52.3478 43.3 44.4064 43.3C33.2714 43.3 23.247 39.3716 15.6631 32.8378C15.0673 32.324 15.6011 31.6238 16.3161 32.0239C24.5006 36.5662 34.6203 39.2988 45.0738 39.2988C52.1237 39.2988 59.8792 37.9075 67.0102 35.0203C68.0875 34.5838 68.9884 35.6932 67.9349 36.4389Z" fill="#FF9900"/>
<path fill-rule="evenodd" clip-rule="evenodd" d="M70.5805 33.5517C69.7702 32.5605 65.2037 33.0833 63.154 33.3152C62.5296 33.388 62.4342 32.8696 62.9967 32.4968C66.6337 30.0552 72.6016 30.7599 73.2975 31.5783C73.9935 32.4013 73.1164 38.1076 69.6987 40.8311C69.1743 41.2494 68.6738 41.0267 68.9074 40.4719C69.6749 38.6441 71.3956 34.5474 70.5805 33.5517Z" fill="#FF9900"/>
<path fill-rule="evenodd" clip-rule="evenodd" d="M63.2973 15.2599V12.8865C63.2973 12.5273 63.5833 12.2863 63.9265 12.2863H75.0663C75.4238 12.2863 75.7098 12.5318 75.7098 12.8865V14.9189C75.7051 15.2599 75.4048 15.7055 74.8709 16.4103L69.0984 24.2717C71.2434 24.2217 73.5076 24.5263 75.4524 25.5721C75.891 25.8085 76.0101 26.1541 76.0435 26.4951V29.0277C76.0435 29.3733 75.6431 29.7779 75.2236 29.5688C71.7964 27.8546 67.2441 27.6682 63.4546 29.587C63.0685 29.787 62.6633 29.3869 62.6633 29.0413V26.6361C62.6633 26.2496 62.6681 25.5903 63.0733 25.0038L69.761 15.8555H63.9408C63.5833 15.8555 63.2973 15.6146 63.2973 15.2599Z" fill="black"/>
<path fill-rule="evenodd" clip-rule="evenodd" d="M22.661 30.0689H19.2719C18.9477 30.0462 18.6903 29.8143 18.6665 29.5188V12.9274C18.6665 12.5955 18.9573 12.3318 19.3195 12.3318H22.4799C22.8088 12.3454 23.0709 12.5864 23.0948 12.8865V15.0553H23.1568C23.9814 12.9592 25.5306 11.9817 27.6184 11.9817C29.7396 11.9817 31.0647 12.9592 32.0181 15.0553C32.8379 12.9592 34.7017 11.9817 36.699 11.9817C38.1195 11.9817 39.6734 12.5409 40.622 13.7959C41.6945 15.1917 41.4752 17.2196 41.4752 18.9974L41.4705 29.4688C41.4705 29.8007 41.1797 30.0689 40.8174 30.0689H37.4331C37.0946 30.0462 36.8229 29.787 36.8229 29.4688V20.6752C36.8229 19.975 36.8897 18.229 36.7276 17.5652C36.475 16.4512 35.7171 16.1375 34.7351 16.1375C33.9152 16.1375 33.0572 16.6604 32.7093 17.497C32.3613 18.3336 32.3946 19.734 32.3946 20.6752V29.4688C32.3946 29.8007 32.1039 30.0689 31.7416 30.0689H28.3572C28.014 30.0462 27.7471 29.787 27.7471 29.4688L27.7423 20.6752C27.7423 18.8247 28.0617 16.1011 25.6545 16.1011C23.2187 16.1011 23.3141 18.7564 23.3141 20.6752V29.4688C23.3141 29.8007 23.0233 30.0689 22.661 30.0689Z" fill="black"/>
<path fill-rule="evenodd" clip-rule="evenodd" d="M85.3003 11.9817C90.3292 11.9817 93.051 16.1011 93.051 21.339C93.051 26.3997 90.0432 30.4145 85.3003 30.4145C80.362 30.4145 77.6736 26.2951 77.6736 21.1617C77.6736 15.9965 80.3954 11.9817 85.3003 11.9817ZM85.3289 15.3691C82.8312 15.3691 82.6739 18.6155 82.6739 20.6388C82.6739 22.6667 82.6405 26.9953 85.3003 26.9953C87.9268 26.9953 88.0507 23.5033 88.0507 21.3754C88.0507 19.975 87.9888 18.3018 87.5454 16.9741C87.1641 15.8192 86.4062 15.3691 85.3289 15.3691Z" fill="black"/>
<path fill-rule="evenodd" clip-rule="evenodd" d="M99.572 30.0689H96.1972C95.8587 30.0462 95.587 29.787 95.587 29.4688L95.5823 12.8729C95.6109 12.5682 95.8921 12.3318 96.2353 12.3318H99.3766C99.6721 12.3454 99.9152 12.5364 99.9819 12.7956V15.3327H100.044C100.992 13.0638 102.322 11.9817 104.663 11.9817C106.183 11.9817 107.666 12.5046 108.619 13.9368C109.506 15.2645 109.506 17.497 109.506 19.102V29.5461C109.468 29.8371 109.186 30.0689 108.853 30.0689H105.454C105.144 30.0462 104.887 29.828 104.854 29.5461V20.5343C104.854 18.7201 105.073 16.0647 102.732 16.0647C101.908 16.0647 101.15 16.5922 100.773 17.3924C100.297 18.4063 100.235 19.4157 100.235 20.5343V29.4688C100.23 29.8007 99.9343 30.0689 99.572 30.0689Z" fill="black"/>
<path fill-rule="evenodd" clip-rule="evenodd" d="M54.4169 22.1438C54.4169 23.4033 54.4503 24.4536 53.783 25.5721C53.2443 26.4815 52.3863 27.0407 51.4377 27.0407C50.1364 27.0407 49.3737 26.095 49.3737 24.6991C49.3737 21.9437 51.9621 21.4436 54.4169 21.4436V22.1438ZM57.8347 30.0234C57.6106 30.2144 57.2865 30.2281 57.0339 30.1007C55.9089 29.2096 55.7039 28.7958 55.089 27.9456C53.23 29.7552 51.9096 30.2963 49.5024 30.2963C46.6472 30.2963 44.4307 28.6185 44.4307 25.2584C44.4307 22.6349 45.9179 20.848 48.0438 19.975C49.8838 19.202 52.453 19.0656 54.4169 18.8519V18.4336C54.4169 17.6652 54.4789 16.7558 54.0022 16.092C53.5923 15.4963 52.801 15.2508 52.1003 15.2508C50.8085 15.2508 49.6598 15.8828 49.3785 17.1923C49.3213 17.4833 49.0973 17.7698 48.7874 17.7834L45.5032 17.4469C45.2267 17.3878 44.9169 17.1741 44.9979 16.7695C45.751 12.9683 49.3547 11.8225 52.577 11.8225C54.2263 11.8225 56.3808 12.2408 57.6821 13.4321C59.3314 14.9007 59.1741 16.8604 59.1741 18.9929V24.0307C59.1741 25.5448 59.8319 26.2087 60.4516 27.0271C60.6661 27.3181 60.7138 27.6682 60.4373 27.8864C59.7461 28.4366 58.5163 29.4596 57.8394 30.0325L57.8347 30.0234Z" fill="black"/>
<path fill-rule="evenodd" clip-rule="evenodd" d="M9.98627 22.1438C9.98627 23.4033 10.0196 24.4536 9.35229 25.5721C8.81365 26.4815 7.96041 27.0407 7.00707 27.0407C5.70575 27.0407 4.94785 26.095 4.94785 24.6991C4.94785 21.9437 7.53617 21.4436 9.98627 21.4436V22.1438ZM13.404 30.0234C13.18 30.2144 12.8558 30.228 12.6032 30.1007C11.4782 29.2096 11.278 28.7958 10.6584 27.9455C8.79935 29.7552 7.48374 30.2962 5.07178 30.2962C2.22129 30.2962 0 28.6185 0 25.2584C0 22.6349 1.49198 20.848 3.61317 19.975C5.45312 19.202 8.02238 19.0656 9.98627 18.8519V18.4336C9.98627 17.6652 10.0482 16.7558 9.57633 16.092C9.16162 15.4963 8.37035 15.2508 7.67441 15.2508C6.38263 15.2508 5.22908 15.8828 4.94785 17.1923C4.89065 17.4833 4.66661 17.7698 4.36154 17.7834L1.07251 17.4469C0.796041 17.3878 0.490971 17.1741 0.567238 16.7695C1.32515 12.9683 4.92401 11.8225 8.14631 11.8225C9.79559 11.8225 11.9501 12.2408 13.2515 13.4321C14.9007 14.9007 14.7434 16.8604 14.7434 18.9928V24.0307C14.7434 25.5448 15.4013 26.2087 16.0209 27.0271C16.2402 27.3181 16.2879 27.6682 16.0114 27.8864C15.3202 28.4366 14.0904 29.4596 13.4135 30.0325L13.404 30.0234Z" fill="black"/>
</svg>
