<svg width="113" height="47" viewBox="0 0 113 47" fill="none" xmlns="http://www.w3.org/2000/svg">
<path d="M48.2375 24.8428C48.2375 29.9204 44.0732 33.6621 38.9625 33.6621C33.8519 33.6621 29.6875 29.9204 29.6875 24.8428C29.6875 19.7293 33.8519 16.0234 38.9625 16.0234C44.0732 16.0234 48.2375 19.7293 48.2375 24.8428ZM44.1774 24.8428C44.1774 21.6697 41.7638 19.4987 38.9625 19.4987C36.1613 19.4987 33.7477 21.6697 33.7477 24.8428C33.7477 27.984 36.1613 30.1868 38.9625 30.1868C41.7638 30.1868 44.1774 27.98 44.1774 24.8428Z" fill="#EA4335"/>
<path d="M68.2473 24.8428C68.2473 29.9204 64.0829 33.6621 58.9723 33.6621C53.8616 33.6621 49.6973 29.9204 49.6973 24.8428C49.6973 19.7333 53.8616 16.0234 58.9723 16.0234C64.0829 16.0234 68.2473 19.7293 68.2473 24.8428ZM64.1871 24.8428C64.1871 21.6697 61.7736 19.4987 58.9723 19.4987C56.171 19.4987 53.7574 21.6697 53.7574 24.8428C53.7574 27.984 56.171 30.1868 58.9723 30.1868C61.7736 30.1868 64.1871 27.98 64.1871 24.8428Z" fill="#FBBC05"/>
<path d="M87.4219 16.5563V32.3897C87.4219 38.9028 83.3951 41.5629 78.6346 41.5629C74.1534 41.5629 71.4564 38.704 70.4393 36.3659L73.9742 34.9623C74.6037 36.3977 76.146 38.0916 78.6305 38.0916C81.6777 38.0916 83.566 36.2983 83.566 32.9225V31.6541H83.4243C82.5156 32.7237 80.7648 33.6581 78.5554 33.6581C73.9325 33.6581 69.6973 29.817 69.6973 24.8746C69.6973 19.8963 73.9325 16.0234 78.5554 16.0234C80.7606 16.0234 82.5114 16.9579 83.4243 17.9957H83.566V16.5602H87.4219V16.5563ZM83.8537 24.8746C83.8537 21.7691 81.6818 19.4987 78.9181 19.4987C76.1168 19.4987 73.7699 21.7691 73.7699 24.8746C73.7699 27.9482 76.1168 30.1868 78.9181 30.1868C81.6818 30.1868 83.8537 27.9482 83.8537 24.8746Z" fill="#4285F4"/>
<path d="M93.7795 7.27588V33.1215H89.8193V7.27588H93.7795Z" fill="#34A853"/>
<path d="M109.211 27.7455L112.363 29.7495C111.346 31.1849 108.895 33.6582 104.659 33.6582C99.407 33.6582 95.4844 29.7853 95.4844 24.8389C95.4844 19.5942 99.4403 16.0195 104.205 16.0195C109.003 16.0195 111.35 19.6618 112.117 21.63L112.538 22.632L100.178 27.5149C101.124 29.2843 102.596 30.1869 104.659 30.1869C106.727 30.1869 108.161 29.2167 109.211 27.7455ZM99.5112 24.5724L107.773 21.3C107.319 20.1986 105.952 19.4312 104.343 19.4312C102.279 19.4312 99.407 21.1688 99.5112 24.5724Z" fill="#EA4335"/>
<path d="M14.6975 22.5485V18.8069H27.9159C28.0451 19.459 28.1118 20.2304 28.1118 21.0654C28.1118 23.8726 27.3073 27.3439 24.7145 29.8171C22.1925 32.3222 18.9702 33.6582 14.7016 33.6582C6.78972 33.6582 0.136719 27.5109 0.136719 19.964C0.136719 12.4171 6.78972 6.26978 14.7016 6.26978C19.0786 6.26978 22.1967 7.90799 24.5394 10.0432L21.7715 12.6835C20.0916 11.1804 17.8155 10.0114 14.6975 10.0114C8.91985 10.0114 4.40114 14.4529 4.40114 19.964C4.40114 25.4751 8.91985 29.9165 14.6975 29.9165C18.445 29.9165 20.5793 28.4811 21.9466 27.1769C23.0554 26.1192 23.7849 24.6082 24.0725 22.5446L14.6975 22.5485Z" fill="#4285F4"/>
</svg>
