<svg width="164" height="47" viewBox="0 0 164 47" fill="none" xmlns="http://www.w3.org/2000/svg">
<path d="M163.858 21.2026V18.4538H160.279V14.1805L160.159 14.2159L156.798 15.1969L156.731 15.2161V18.454H151.426V16.6502C151.426 15.8103 151.623 15.1675 152.011 14.7389C152.396 14.3154 152.948 14.1001 153.65 14.1001C154.156 14.1001 154.679 14.2136 155.206 14.4376L155.338 14.4938V11.599L155.276 11.5772C154.784 11.4088 154.116 11.324 153.288 11.324C152.244 11.324 151.296 11.5406 150.469 11.97C149.641 12.4 148.99 13.0139 148.534 13.7944C148.08 14.5739 147.849 15.4743 147.849 16.4707V18.4538H145.357V21.2026H147.849V32.7826H151.426V21.2026H156.731V28.5614C156.731 31.5922 158.23 33.128 161.186 33.128C161.671 33.128 162.183 33.0738 162.704 32.9675C163.236 32.8583 163.598 32.7493 163.811 32.6329L163.858 32.6063V29.8321L163.712 29.9239C163.518 30.0473 163.276 30.1481 162.993 30.2231C162.708 30.2994 162.471 30.3377 162.286 30.3377C161.594 30.3377 161.082 30.1597 160.764 29.8085C160.442 29.4541 160.279 28.8344 160.279 27.9674V21.2026H163.858ZM137.369 30.3382C136.071 30.3382 135.047 29.9275 134.326 29.1186C133.6 28.3056 133.232 27.1465 133.232 25.6739C133.232 24.1545 133.6 22.9654 134.326 22.138C135.048 21.3161 136.062 20.899 137.34 20.899C138.58 20.899 139.568 21.2974 140.275 22.0837C140.986 22.8742 141.346 24.0538 141.346 25.5909C141.346 27.1468 141.007 28.3421 140.338 29.1416C139.674 29.9351 138.675 30.3382 137.369 30.3382V30.3382ZM137.528 18.1086C135.051 18.1086 133.084 18.8009 131.681 20.1664C130.279 21.532 129.568 23.4218 129.568 25.7838C129.568 28.0273 130.262 29.8318 131.631 31.1465C132.999 32.4616 134.862 33.1277 137.166 33.1277C139.567 33.1277 141.495 32.4257 142.897 31.0414C144.299 29.6585 145.01 27.7866 145.01 25.4798C145.01 23.2012 144.343 21.3832 143.028 20.0774C141.712 18.7709 139.862 18.1086 137.528 18.1086V18.1086ZM123.801 18.1086C122.116 18.1086 120.722 18.5197 119.658 19.3303C118.586 20.1457 118.043 21.2151 118.043 22.5092C118.043 23.1819 118.16 23.7794 118.391 24.2862C118.623 24.7947 118.983 25.2424 119.46 25.6181C119.934 25.9908 120.665 26.3812 121.634 26.7784C122.449 27.0982 123.057 27.3687 123.443 27.5818C123.82 27.7908 124.088 28.0008 124.239 28.2054C124.386 28.4056 124.46 28.6795 124.46 29.0176C124.46 29.9803 123.704 30.4487 122.149 30.4487C121.572 30.4487 120.915 30.3338 120.194 30.1073C119.478 29.8842 118.803 29.5575 118.191 29.1387L118.043 29.0371V32.3222L118.097 32.3463C118.603 32.5692 119.241 32.7571 119.994 32.905C120.744 33.053 121.426 33.1283 122.019 33.1283C123.847 33.1283 125.32 32.7153 126.394 31.8999C127.475 31.0789 128.023 29.9842 128.023 28.6454C128.023 27.6795 127.728 26.8513 127.147 26.1833C126.569 25.5207 125.567 24.9125 124.169 24.3748C123.055 23.9484 122.342 23.5945 122.048 23.3228C121.764 23.0603 121.62 22.6891 121.62 22.219C121.62 21.8024 121.798 21.4685 122.163 21.1982C122.531 20.9265 123.043 20.7883 123.685 20.7883C124.281 20.7883 124.891 20.8781 125.497 21.0541C126.103 21.2301 126.636 21.4658 127.08 21.7541L127.226 21.8494V18.7332L127.17 18.7102C126.76 18.5426 126.219 18.3991 125.563 18.2826C124.909 18.167 124.317 18.1086 123.801 18.1086V18.1086ZM108.718 30.3382C107.42 30.3382 106.396 29.9275 105.675 29.1186C104.949 28.3056 104.581 27.1468 104.581 25.6739C104.581 24.1545 104.949 22.9654 105.675 22.138C106.397 21.3161 107.41 20.899 108.689 20.899C109.929 20.899 110.916 21.2974 111.624 22.0837C112.335 22.8742 112.695 24.0538 112.695 25.5909C112.695 27.1468 112.356 28.3421 111.687 29.1416C111.023 29.9351 110.024 30.3382 108.718 30.3382V30.3382ZM108.877 18.1086C106.4 18.1086 104.432 18.8009 103.03 20.1664C101.628 21.532 100.917 23.4218 100.917 25.7838C100.917 28.0282 101.611 29.8318 102.98 31.1465C104.348 32.4616 106.211 33.1277 108.515 33.1277C110.916 33.1277 112.844 32.4257 114.247 31.0414C115.648 29.6585 116.359 27.7866 116.359 25.4798C116.359 23.2012 115.692 21.3832 114.377 20.0774C113.061 18.7709 111.21 18.1086 108.877 18.1086V18.1086ZM95.4871 20.9352V18.4538H91.9536V32.7822H95.4871V25.4527C95.4871 24.2064 95.7833 23.1825 96.3679 22.4091C96.945 21.645 97.7141 21.2577 98.6531 21.2577C98.9714 21.2577 99.3287 21.3078 99.7156 21.4068C100.099 21.5053 100.376 21.6121 100.54 21.7246L100.688 21.8273V18.4293L100.631 18.4059C100.302 18.2725 99.8362 18.2052 99.2472 18.2052C98.3592 18.2052 97.5646 18.4774 96.884 19.0132C96.2866 19.4842 95.8548 20.13 95.5246 20.9352H95.4871ZM85.6258 18.1086C84.0047 18.1086 82.5588 18.4402 81.3289 19.0938C80.0965 19.749 79.1434 20.6843 78.4949 21.8736C77.8493 23.06 77.5215 24.4459 77.5215 25.9914C77.5215 27.3452 77.8393 28.5876 78.4675 29.6826C79.096 30.7793 79.9856 31.6374 81.1116 32.2325C82.2361 32.8269 83.5357 33.1282 84.9746 33.1282C86.6538 33.1282 88.0876 32.808 89.2371 32.1764L89.2835 32.151V29.0631L89.135 29.1665C88.6143 29.5283 88.0324 29.8171 87.4063 30.0252C86.7818 30.2331 86.2124 30.3382 85.7131 30.3382C84.3266 30.3382 83.2136 29.9243 82.4057 29.1085C81.596 28.2916 81.1855 27.1444 81.1855 25.701C81.1855 24.2484 81.6136 23.0718 82.4573 22.2036C83.2985 21.338 84.4136 20.899 85.7714 20.899C86.9328 20.899 88.0646 21.2741 89.1353 22.0149L89.2835 22.1176V18.864L89.2356 18.8383C88.8327 18.6231 88.2832 18.4455 87.6009 18.3108C86.9216 18.1764 86.2571 18.1086 85.6258 18.1086V18.1086ZM75.088 18.454H71.5545V32.7822H75.088V18.454V18.454ZM73.3574 12.35C72.7758 12.35 72.2686 12.5388 71.8518 12.9131C71.4334 13.2883 71.2211 13.7608 71.2211 14.3184C71.2211 14.8673 71.4308 15.3311 71.8453 15.6964C72.2571 16.0607 72.766 16.2453 73.3575 16.2453C73.9489 16.2453 74.4596 16.0607 74.8763 15.697C75.2958 15.3311 75.5085 14.8674 75.5085 14.3184C75.5085 13.7803 75.3015 13.3127 74.8936 12.9282C74.4861 12.5444 73.969 12.35 73.3574 12.35ZM64.5411 17.3968V32.7822H68.1472V12.7886H63.1562L56.8124 27.6393L50.6561 12.7886H45.4619V32.7821H48.8507V17.3953H48.967L55.4679 32.7822H58.0253L64.4248 17.3968H64.5411V17.3968Z" fill="#706D6E"/>
<path d="M16.6225 21.9633H0V6.10767H16.6225V21.9633Z" fill="#F1511B"/>
<path d="M34.9757 21.9633H18.3535V6.10767H34.9757V21.9633Z" fill="#80CC28"/>
<path d="M16.622 39.4761H0V23.6206H16.622V39.4761Z" fill="#00ADEF"/>
<path d="M34.9757 39.4761H18.3535V23.6206H34.9757V39.4761Z" fill="#FBBC09"/>
</svg>
