<svg width="121" height="47" viewBox="0 0 121 47" fill="none" xmlns="http://www.w3.org/2000/svg">
<path d="M37.9253 31.3065L39.3934 28.0334C41.0009 29.1689 43.0975 29.7699 45.1947 29.7699C46.7325 29.7699 47.7109 29.2024 47.7109 28.3341C47.6758 25.9292 38.4496 27.7996 38.3794 21.7534C38.3443 18.6805 41.2104 16.3091 45.2649 16.3091C47.6758 16.3091 50.0878 16.8771 51.8 18.18L50.4281 21.5229C48.8527 20.5567 46.9069 19.883 45.0549 19.883C43.7968 19.883 42.9577 20.4505 42.9577 21.1859C42.9928 23.5573 52.2897 22.2544 52.3945 28.0334C52.3945 31.1732 49.5981 33.3777 45.6137 33.3777C42.6785 33.3777 39.9874 32.7098 37.9248 31.3065H37.9253ZM96.3833 26.8481C96.0128 27.4762 95.4737 27.999 94.8215 28.3628C94.1692 28.7266 93.4273 28.9183 92.6717 28.9184C90.3169 28.9184 88.4082 27.0939 88.4082 24.8434C88.4082 22.5929 90.3169 20.7685 92.6717 20.7685C93.4273 20.7685 94.1692 20.9603 94.8215 21.3241C95.4737 21.6879 96.0128 22.2106 96.3833 22.8387L100.465 20.6776C98.9361 18.0714 96.0199 16.3091 92.6717 16.3091C87.74 16.3091 83.7422 20.1297 83.7422 24.8434C83.7422 29.5567 87.74 33.3777 92.6717 33.3777C96.0199 33.3777 98.9361 31.6154 100.465 29.0092L96.3833 26.8481ZM55.043 33.0435H60.1456V9.20483H55.0435L55.043 33.0435ZM103.042 9.20483V33.0435H108.144V25.9015L114.191 33.0435H120.713L113.024 24.5589L120.153 16.6419H113.911L108.144 23.2241V9.20483H103.042ZM75.8658 16.6428V18.5806C75.0272 17.2443 72.9651 16.3091 70.7983 16.3091C66.3248 16.3091 62.7951 20.0838 62.7951 24.8267C62.7951 29.5696 66.3248 33.3777 70.7983 33.3777C72.9651 33.3777 75.0272 32.4425 75.8658 31.1062V33.0435H80.9684V16.6428H75.8658ZM75.8658 26.8811C75.132 28.0501 73.5942 28.9179 71.882 28.9179C69.5267 28.9179 67.618 27.0939 67.618 24.8434C67.618 22.5929 69.5267 20.7685 71.882 20.7685C73.5942 20.7685 75.132 21.6702 75.8658 22.8722V26.8811Z" fill="black"/>
<path d="M10.978 8.67798C9.32448 8.67798 7.98417 9.95932 7.98417 11.5395C7.98378 11.9149 8.0609 12.2867 8.21115 12.6337C8.36139 12.9806 8.58181 13.296 8.85981 13.5617C9.13782 13.8274 9.46797 14.0383 9.83142 14.1823C10.1949 14.3263 10.5845 14.4006 10.978 14.401H13.9724V11.5395C13.9731 10.7813 13.658 10.0539 13.0965 9.51725C12.5349 8.98063 11.7729 8.67874 10.978 8.67798ZM10.978 16.3087H2.99388C1.3403 16.3087 0 17.59 0 19.1706C0 20.7508 1.3403 22.0321 2.99388 22.0321H10.9785C12.6316 22.0321 13.9724 20.7508 13.9724 19.1706C13.9724 17.59 12.6316 16.3087 10.978 16.3087Z" fill="#36C5F0"/>
<path d="M29.9412 19.1706C29.9412 17.59 28.6004 16.3087 26.9468 16.3087C25.2932 16.3087 23.9529 17.59 23.9529 19.1706V22.0321H26.9468C27.7417 22.0314 28.5037 21.7295 29.0652 21.1929C29.6268 20.6562 29.9418 19.9288 29.9412 19.1706ZM21.957 19.1706V11.5395C21.9577 10.7813 21.6426 10.0539 21.081 9.51725C20.5195 8.98063 19.7575 8.67874 18.9626 8.67798C17.3091 8.67798 15.9688 9.95932 15.9688 11.5395V19.1702C15.9688 20.7513 17.3091 22.0326 18.9626 22.0326C19.7575 22.0319 20.5195 21.73 21.081 21.1933C21.6426 20.6567 21.9577 19.9293 21.957 19.1711" fill="#2EB67D"/>
<path d="M18.9626 37.2941C19.7575 37.2933 20.5195 36.9915 21.081 36.4548C21.6426 35.9182 21.9577 35.1908 21.957 34.4326C21.9577 33.6744 21.6426 32.947 21.081 32.4104C20.5195 31.8737 19.7575 31.5719 18.9626 31.5711H15.9688V34.4326C15.9688 36.0128 17.3091 37.2941 18.9626 37.2941ZM18.9626 29.6634H26.9473C28.6004 29.6634 29.9412 28.3821 29.9412 26.8014C29.9418 26.0432 29.6268 25.3158 29.0652 24.7792C28.5037 24.2426 27.7417 23.9407 26.9468 23.9399H18.9626C17.3091 23.9399 15.9688 25.2213 15.9688 26.8014C15.9684 27.1768 16.0455 27.5486 16.1957 27.8956C16.346 28.2426 16.5664 28.5579 16.8444 28.8236C17.1224 29.0894 17.4526 29.3002 17.816 29.4443C18.1794 29.5883 18.5691 29.6626 18.9626 29.6629" fill="#ECB22E"/>
<path d="M1.51064e-06 26.8014C-0.000393626 27.1768 0.0767319 27.5486 0.226974 27.8956C0.377217 28.2426 0.597634 28.5579 0.875642 28.8236C1.15365 29.0894 1.4838 29.3002 1.84725 29.4443C2.2107 29.5883 2.60032 29.6626 2.99388 29.6629C3.78875 29.6622 4.55075 29.3603 5.11229 28.8237C5.67383 28.2871 5.98892 27.5596 5.98826 26.8014V23.9399H2.99388C1.3403 23.9399 1.51064e-06 25.2213 1.51064e-06 26.8014ZM7.98417 26.8014V34.4321C7.98417 36.0128 9.32448 37.2941 10.9781 37.2941C11.7729 37.2933 12.5349 36.9915 13.0965 36.4548C13.658 35.9182 13.9731 35.1908 13.9724 34.4326V26.8014C13.9728 26.426 13.8957 26.0542 13.7454 25.7072C13.5951 25.3602 13.3747 25.0448 13.0966 24.7791C12.8186 24.5134 12.4883 24.3025 12.1248 24.1585C11.7613 24.0145 11.3716 23.9403 10.9781 23.9399C9.32448 23.9399 7.98417 25.2213 7.98417 26.8014Z" fill="#E01E5A"/>
</svg>
