<svg width="165" height="47" viewBox="0 0 165 47" fill="none" xmlns="http://www.w3.org/2000/svg">
<g clip-path="url(#clip0_1402_578)">
<path d="M50.825 29.0457C50.35 29.159 49.7563 29.2722 49.1625 29.2722C47.975 29.2722 47.5 28.5926 47.5 27.4599V22.3626H50.825C51.6562 22.3626 52.4875 21.7963 52.4875 20.8901C52.4875 19.9839 51.775 19.4176 50.825 19.4176H47.5V17.7185C47.5 16.699 46.6688 16.0194 45.7188 16.0194C44.7687 16.0194 43.9375 16.8123 43.9375 17.7185V27.5731C43.9375 30.4049 45.3625 32.4438 48.6875 32.4438C49.6375 32.4438 50.9438 32.3306 51.8938 31.8775C52.725 31.5377 52.9625 30.9713 52.9625 30.4049C52.9625 29.612 52.1312 28.8191 50.825 29.0457ZM62.7 18.9645C62.225 18.8512 61.275 18.7379 60.4438 18.7379C57.475 18.7379 55.8125 20.437 55.8125 23.0423V30.7448C55.8125 31.6509 56.6437 32.4438 57.5938 32.4438C58.5438 32.4438 59.375 31.6509 59.375 30.7448V23.7219C59.375 22.5892 59.85 22.1361 60.6812 22.1361C61.5125 22.1361 61.9875 22.3626 62.7 22.3626C63.7687 22.3626 64.3625 21.4565 64.3625 20.7768C64.2438 19.8706 63.7687 19.3043 62.7 18.9645ZM72.5562 18.7379C69.2312 18.7379 66.8563 20.7768 66.5 24.0617C66.5 24.8546 66.3812 26.2139 66.5 27.2333C66.7375 30.4049 69.1125 32.5571 72.675 32.5571C74.3375 32.5571 75.8812 32.2173 76.8312 31.6509C77.5437 31.1978 77.6625 30.7448 77.6625 30.2917C77.6625 29.3855 76.8313 28.4793 75.4062 28.9324C74.575 29.2722 73.625 29.4988 72.675 29.4988C71.0125 29.4988 69.7063 28.7059 69.7063 27.1201V26.7802H76.475C77.6625 26.7802 78.2563 26.1006 78.2563 25.0812V24.5148C78.375 21.0034 76 18.7379 72.5562 18.7379ZM74.8125 24.5148H69.825C69.825 22.8157 70.6562 21.683 72.5562 21.683C74.2187 21.683 75.1688 22.7024 75.05 24.175C75.05 24.4015 75.05 24.5148 74.8125 24.5148ZM86.8062 18.7379C83.4812 18.7379 81.1063 20.7768 80.75 24.0617C80.75 24.8546 80.6312 26.2139 80.75 27.2333C80.9875 30.4049 83.3625 32.5571 86.925 32.5571C88.5875 32.5571 90.1312 32.2173 91.0812 31.6509C91.7937 31.1978 91.9125 30.7448 91.9125 30.2917C91.9125 29.3855 91.0813 28.4793 89.6562 28.9324C88.825 29.2722 87.875 29.4988 86.925 29.4988C85.2625 29.4988 83.9562 28.7059 83.9562 27.1201V26.7802H90.725C91.9125 26.7802 92.5063 26.1006 92.5063 25.0812V24.5148C92.625 21.0034 90.25 18.7379 86.8062 18.7379ZM89.0625 24.5148H84.075C84.075 22.8157 84.9062 21.683 86.8062 21.683C88.4687 21.683 89.4187 22.7024 89.3 24.175C89.3 24.4015 89.3 24.5148 89.0625 24.5148ZM146.775 24.4015L144.875 23.9484C143.688 23.7219 143.331 23.3821 143.331 22.8157C143.331 22.2494 143.925 21.7963 145.231 21.7963C145.944 21.7963 146.775 22.0228 147.487 22.3626C148.319 22.8157 149.269 22.7024 149.744 22.1361C150.337 21.5697 150.338 20.5503 149.625 19.8706C148.675 19.191 147.013 18.7379 145.35 18.7379C142.263 18.7379 140.006 20.2105 140.006 22.929C140.006 25.0812 141.669 26.2139 143.806 26.7802C144.875 27.0068 144.756 27.0068 145.706 27.2333C146.775 27.4599 147.25 27.913 147.25 28.366C147.25 29.0457 146.656 29.4988 145.231 29.4988C144.044 29.4988 142.975 29.1589 142.144 28.7059C141.312 28.1395 140.363 28.366 139.888 29.0457C139.413 29.7253 139.531 30.6315 140.244 31.0846C141.194 31.8775 142.738 32.5571 145.231 32.5571C148.319 32.5571 150.694 30.9713 150.694 28.2528C150.694 26.2139 149.387 24.9679 146.775 24.4015ZM163.281 26.7802C164.469 26.7802 165.062 26.1006 165.062 25.0812V24.5148C165.062 21.0034 162.688 18.7379 159.244 18.7379C155.919 18.7379 153.544 20.7768 153.188 24.0617C153.188 24.8546 153.069 26.2139 153.188 27.2333C153.425 30.4049 155.8 32.5571 159.362 32.5571C161.025 32.5571 162.569 32.2173 163.519 31.6509C164.231 31.1978 164.35 30.7448 164.35 30.2917C164.35 29.3855 163.519 28.4793 162.094 28.9324C161.263 29.2722 160.312 29.4988 159.362 29.4988C157.7 29.4988 156.394 28.7059 156.394 27.1201V26.7802H163.281ZM159.244 21.683C160.906 21.683 161.856 22.7024 161.737 24.175C161.737 24.4015 161.619 24.5148 161.5 24.5148H156.513C156.513 22.8157 157.463 21.683 159.244 21.683ZM115.781 18.7379C112.219 18.7379 109.606 20.8901 109.25 23.8352C109.131 24.8546 109.131 26.4404 109.25 27.4599C109.488 30.4049 112.219 32.5571 115.781 32.5571C119.344 32.5571 121.956 30.4049 122.194 27.4599C122.313 26.4404 122.313 24.9679 122.194 23.9484C121.956 20.8901 119.344 18.7379 115.781 18.7379ZM118.631 26.8935C118.513 28.366 117.444 29.2722 115.781 29.2722C114.119 29.2722 113.05 28.2528 112.931 26.8935C112.931 26.2139 112.931 25.0812 112.931 24.4015C113.05 22.929 114.119 22.0228 115.781 22.0228C117.444 22.0228 118.513 23.0423 118.631 24.4015C118.75 25.0812 118.75 26.2139 118.631 26.8935ZM101.65 18.7379C100.344 18.7379 98.9188 19.191 98.4438 19.7574V16.1327C98.4438 15.1132 97.7313 14.4336 96.7812 14.4336C95.8312 14.4336 95.1187 15.2265 95.1187 16.1327V30.7448C95.1187 31.6509 95.95 32.4438 96.9 32.4438C97.85 32.4438 98.5625 31.6509 98.5625 30.7448V23.1555C99.1562 22.5892 100.106 22.1361 101.294 22.1361C102.719 22.1361 103.55 22.929 103.55 24.5148V30.7448C103.55 31.7642 104.262 32.5571 105.212 32.5571C106.281 32.5571 106.994 31.7642 106.994 30.7448V24.2883C106.875 20.6636 104.975 18.7379 101.65 18.7379ZM134.9 18.8512C133.95 18.8512 133.119 19.6441 133.119 20.5503V28.5926C132.525 28.9324 131.694 29.2722 130.625 29.2722C129.2 29.2722 128.131 28.4793 128.131 26.8935V20.5503C128.131 19.5308 127.3 18.7379 126.35 18.7379C125.281 18.7379 124.688 19.5308 124.688 20.5503V27.0068C124.688 30.5182 126.825 32.4438 130.506 32.4438C133.238 32.4438 135.138 31.5377 135.969 30.9713C136.444 30.7448 136.562 30.4049 136.562 29.8386V20.5503C136.562 19.6441 135.85 18.8512 134.9 18.8512Z" fill="#3E474F"/>
<path d="M30.875 11.8286C29.5687 11.1489 27.55 12.2816 26.3625 14.3205L24.1062 17.9452C23.275 19.4178 23.3938 21.2301 24.4625 22.7027L24.5813 22.8159C25.65 24.1752 26.9563 25.5345 27.4313 25.9876C27.6688 26.2141 27.9063 26.5539 28.025 27.007C28.3813 28.253 27.6688 29.6123 26.2438 29.9521C24.9375 30.2919 23.5125 29.6123 23.1562 28.253C23.0375 27.9132 23.0375 27.5734 23.0375 27.3468C23.1562 26.7805 22.9188 25.9876 22.0875 25.0814C21.2563 24.2885 19.7125 25.8743 19.1188 27.4601V27.5734C18.6438 29.1592 18.2875 30.6317 18.4062 30.745C18.4062 30.8582 18.525 30.8582 18.525 30.9715C19.2375 32.3308 18.7625 33.9166 17.3375 34.5962C15.9125 35.2759 14.25 34.8228 13.5375 33.4635C12.825 32.1042 13.3 30.5184 14.725 29.8388C14.8437 29.8388 14.8438 29.7255 14.9625 29.7255C15.0813 29.7255 15.3187 29.0459 15.675 28.1397C15.9125 27.3468 16.0313 27.007 16.15 26.6672C16.2688 26.2141 16.5063 25.0814 16.3875 24.6283C16.2688 24.0619 15.675 24.0619 15.0812 24.4017C14.725 24.6283 14.0125 25.1946 13.775 25.4212C13.1813 25.8743 12.7063 26.5539 12.4688 27.1203C12.35 27.3468 12.1125 27.6866 11.875 27.9132C10.8063 28.7061 9.2625 28.5928 8.3125 27.5734C7.48125 26.5539 7.6 25.0814 8.66875 24.1752C9.025 23.9487 9.38125 23.7221 9.7375 23.7221C10.3312 23.6088 12.4688 22.3629 13.775 21.4567C14.0125 21.3434 14.3687 21.0036 14.4875 20.8903C14.8437 20.4372 14.4875 20.0974 14.1312 20.0974C13.0625 20.2107 11.875 20.324 11.6375 20.6638C11.5188 20.777 11.4 21.0036 11.1625 21.1169C10.2125 21.7965 8.7875 21.5699 8.075 20.6638C7.3625 19.7576 7.6 18.3983 8.55 17.7187C8.90625 17.3789 9.5 17.2656 9.85625 17.2656C10.6875 17.2656 12.825 17.7187 14.4875 17.3789L14.9625 17.2656C16.7438 16.9258 18.8813 15.4533 19.7125 13.9807C19.7125 13.9807 20.5438 12.6215 21.4938 10.9224C22.5625 9.2233 22.4437 7.29768 21.375 6.73132L19.3562 5.5986C18.2875 5.03224 16.7437 5.03224 15.675 5.5986L1.9 13.0745C0.83125 13.6409 0 15.0002 0 16.1329V30.6317C0 31.7644 0.83125 33.1237 1.9 33.69L15.675 41.166C16.7437 41.7324 18.4062 41.7324 19.3562 41.166L33.1312 33.69C34.2 33.1237 35.0312 31.7644 35.0312 30.6317V16.1329C35.0312 15.0002 34.2 13.6409 33.1312 13.0745C33.1312 13.0745 32.1813 12.5082 30.875 11.8286Z" fill="#5FCF80"/>
</g>
<defs>
<clipPath id="clip0_1402_578">
<rect width="165" height="45.7857" fill="white" transform="translate(0 0.375977)"/>
</clipPath>
</defs>
</svg>
